<svg width="100" height="100" viewBox="0 0 100 100" fill="none" xmlns="http://www.w3.org/2000/svg">
<g clip-path="url(#clip0_8451_2304)">
<path d="M0 13C0 5.8203 5.8203 0 13 0H87C94.1797 0 100 5.8203 100 13V100H13C5.8203 100 0 94.1797 0 87V13Z" fill="url(#paint0_linear_8451_2304)"/>
<path d="M87.6569 12.3431C90 14.6863 90 18.4575 90 26V32C90 39.5425 90 43.3137 87.6569 45.6569C85.3137 48 81.5425 48 74 48H68C60.4575 48 56.6863 48 54.3431 45.6569C52 43.3137 52 39.5425 52 32V26C52 18.4575 52 14.6863 54.3431 12.3431C56.6863 10 60.4575 10 68 10H74C81.5425 10 85.3137 10 87.6569 12.3431Z" fill="white"/>
<path d="M90 68C90 60.4575 90 56.6863 87.6569 54.3431C85.3137 52 81.5425 52 74 52H68C60.4575 52 56.6863 52 54.3431 54.3431C52 56.6863 52 60.4575 52 68V74C52 81.5425 52 85.3137 54.3431 87.6569C56.6863 90 60.4575 90 68 90H74C81.5425 90 85.3137 90 87.6569 87.6569C90 85.3137 90 81.5425 90 74V68Z" fill="white"/>
<path d="M45.6569 54.3431C48 56.6863 48 60.4575 48 68V74C48 81.5425 48 85.3137 45.6569 87.6569C43.3137 90 39.5425 90 32 90H26C18.4575 90 14.6863 90 12.3431 87.6569C10 85.3137 10 81.5425 10 74V68C10 60.4575 10 56.6863 12.3431 54.3431C14.6863 52 18.4575 52 26 52H32C39.5425 52 43.3137 52 45.6569 54.3431Z" fill="white"/>
<path d="M45.6569 12.3431C48 14.6863 48 18.4575 48 26V32C48 39.5425 48 43.3137 45.6569 45.6569C43.3137 48 39.5425 48 32 48H26C18.4575 48 14.6863 48 12.3431 45.6569C10 43.3137 10 39.5425 10 32V26C10 18.4575 10 14.6863 12.3431 12.3431C14.6863 10 18.4575 10 26 10H32C39.5425 10 43.3137 10 45.6569 12.3431Z" fill="white"/>
</g>
<defs>
<linearGradient id="paint0_linear_8451_2304" x1="50" y1="0" x2="50" y2="100" gradientUnits="userSpaceOnUse">
<stop stop-color="#FFB86C"/>
<stop offset="0.505781" stop-color="#F280CD"/>
<stop offset="1" stop-color="#C195F8"/>
</linearGradient>
<clipPath id="clip0_8451_2304">
<rect width="100" height="100" fill="white"/>
</clipPath>
</defs>
</svg>
